<svg width="1288" height="268" viewBox="0 0 1288 268" fill="none" xmlns="http://www.w3.org/2000/svg">
<path d="M69.7266 264L0 80.9678H53.1494L93.1396 195.128L132.959 80.9678H186.279L116.553 264H69.7266ZM375.806 264H364.526L346.411 238.878C341.968 242.866 337.24 246.625 332.227 250.157C327.327 253.575 322.144 256.594 316.675 259.215C311.206 261.721 305.566 263.715 299.756 265.196C294.059 266.677 288.249 267.418 282.324 267.418C269.45 267.418 257.316 265.253 245.923 260.924C234.644 256.594 224.731 250.328 216.187 242.125C207.756 233.808 201.09 223.668 196.191 211.705C191.292 199.742 188.843 186.127 188.843 170.86C188.843 156.619 191.292 143.574 196.191 131.725C201.09 119.762 207.756 109.508 216.187 100.963C224.731 92.418 234.644 85.8099 245.923 81.1387C257.316 76.3535 269.45 73.9609 282.324 73.9609C288.249 73.9609 294.116 74.7015 299.927 76.1826C305.737 77.6637 311.377 79.7145 316.846 82.335C322.314 84.9554 327.498 88.0316 332.397 91.5635C337.41 95.0954 342.082 98.9121 346.411 103.014L364.526 81.3096H375.806V264ZM328.809 170.86C328.809 164.48 327.555 158.328 325.049 152.403C322.656 146.365 319.352 141.067 315.137 136.51C310.921 131.839 305.965 128.136 300.269 125.401C294.686 122.553 288.704 121.129 282.324 121.129C275.944 121.129 269.906 122.211 264.209 124.376C258.626 126.541 253.727 129.731 249.512 133.946C245.41 138.162 242.163 143.403 239.771 149.669C237.378 155.821 236.182 162.885 236.182 170.86C236.182 178.836 237.378 185.956 239.771 192.223C242.163 198.375 245.41 203.559 249.512 207.774C253.727 211.99 258.626 215.18 264.209 217.345C269.906 219.509 275.944 220.592 282.324 220.592C288.704 220.592 294.686 219.225 300.269 216.49C305.965 213.642 310.921 209.939 315.137 205.382C319.352 200.711 322.656 195.413 325.049 189.488C327.555 183.45 328.809 177.241 328.809 170.86ZM458.179 264H411.523V80.9678H422.803L438.184 102.672C445.703 95.8359 454.248 90.5951 463.818 86.9492C473.389 83.1895 483.301 81.3096 493.555 81.3096H534.741V127.794H493.555C488.656 127.794 484.041 128.705 479.712 130.528C475.382 132.351 471.623 134.858 468.433 138.048C465.243 141.238 462.736 144.998 460.913 149.327C459.09 153.657 458.179 158.271 458.179 163.17V264ZM611.475 31.2363C611.475 35.5658 610.62 39.6104 608.911 43.3701C607.316 47.1299 605.094 50.4339 602.246 53.2822C599.398 56.0166 596.037 58.2383 592.163 59.9473C588.403 61.5423 584.359 62.3398 580.029 62.3398C575.7 62.3398 571.598 61.5423 567.725 59.9473C563.965 58.2383 560.661 56.0166 557.812 53.2822C555.078 50.4339 552.856 47.1299 551.147 43.3701C549.552 39.6104 548.755 35.5658 548.755 31.2363C548.755 27.0208 549.552 23.0332 551.147 19.2734C552.856 15.3997 555.078 12.0957 557.812 9.36133C560.661 6.51302 563.965 4.29134 567.725 2.69629C571.598 0.987305 575.7 0.132812 580.029 0.132812C584.359 0.132812 588.403 0.987305 592.163 2.69629C596.037 4.29134 599.398 6.51302 602.246 9.36133C605.094 12.0957 607.316 15.3997 608.911 19.2734C610.62 23.0332 611.475 27.0208 611.475 31.2363ZM603.442 264H556.445V80.9678H603.442V264ZM685.815 264H639.16V80.9678H650.439L665.82 98.7412C673.34 91.9053 681.828 86.6644 691.284 83.0186C700.854 79.2588 710.824 77.3789 721.191 77.3789C732.357 77.3789 742.896 79.5436 752.808 83.873C762.72 88.0885 771.379 93.9561 778.784 101.476C786.19 108.881 792 117.597 796.216 127.623C800.545 137.535 802.71 148.131 802.71 159.41V264H756.055V159.41C756.055 154.625 755.143 150.125 753.32 145.909C751.497 141.58 748.991 137.82 745.801 134.63C742.611 131.44 738.908 128.933 734.692 127.11C730.477 125.287 725.977 124.376 721.191 124.376C716.292 124.376 711.678 125.287 707.349 127.11C703.019 128.933 699.259 131.44 696.069 134.63C692.879 137.82 690.373 141.58 688.55 145.909C686.727 150.125 685.815 154.625 685.815 159.41V264ZM1013.26 264H1001.98L983.862 238.878C979.419 242.866 974.691 246.625 969.678 250.157C964.779 253.575 959.595 256.594 954.126 259.215C948.657 261.721 943.018 263.715 937.207 265.196C931.51 266.677 925.7 267.418 919.775 267.418C906.901 267.418 894.767 265.253 883.374 260.924C872.095 256.594 862.183 250.328 853.638 242.125C845.207 233.808 838.542 223.668 833.643 211.705C828.743 199.742 826.294 186.127 826.294 170.86C826.294 156.619 828.743 143.574 833.643 131.725C838.542 119.762 845.207 109.508 853.638 100.963C862.183 92.418 872.095 85.8099 883.374 81.1387C894.767 76.3535 906.901 73.9609 919.775 73.9609C925.7 73.9609 931.567 74.7015 937.378 76.1826C943.188 77.6637 948.828 79.7145 954.297 82.335C959.766 84.9554 964.95 88.0316 969.849 91.5635C974.862 95.0954 979.533 98.9121 983.862 103.014L1001.98 81.3096H1013.26V264ZM966.26 170.86C966.26 164.48 965.007 158.328 962.5 152.403C960.107 146.365 956.803 141.067 952.588 136.51C948.372 131.839 943.416 128.136 937.72 125.401C932.137 122.553 926.156 121.129 919.775 121.129C913.395 121.129 907.357 122.211 901.66 124.376C896.077 126.541 891.178 129.731 886.963 133.946C882.861 138.162 879.614 143.403 877.222 149.669C874.829 155.821 873.633 162.885 873.633 170.86C873.633 178.836 874.829 185.956 877.222 192.223C879.614 198.375 882.861 203.559 886.963 207.774C891.178 211.99 896.077 215.18 901.66 217.345C907.357 219.509 913.395 220.592 919.775 220.592C926.156 220.592 932.137 219.225 937.72 216.49C943.416 213.642 948.372 209.939 952.588 205.382C956.803 200.711 960.107 195.413 962.5 189.488C965.007 183.45 966.26 177.241 966.26 170.86ZM1149.46 264H1042.82V217.516H1149.46C1152.65 217.516 1155.39 216.376 1157.67 214.098C1159.94 211.819 1161.08 209.085 1161.08 205.895C1161.08 202.59 1159.94 200.426 1157.67 199.4C1155.39 198.375 1152.65 197.862 1149.46 197.862H1100.93C1092.84 197.862 1085.26 196.324 1078.2 193.248C1071.13 190.172 1064.98 186.013 1059.74 180.772C1054.5 175.418 1050.34 169.208 1047.27 162.145C1044.3 155.081 1042.82 147.504 1042.82 139.415C1042.82 131.326 1044.3 123.749 1047.27 116.686C1050.34 109.622 1054.5 103.469 1059.74 98.2285C1064.98 92.9876 1071.13 88.8861 1078.2 85.9238C1085.26 82.8477 1092.84 81.3096 1100.93 81.3096H1195.43V127.794H1100.93C1097.74 127.794 1095 128.933 1092.72 131.212C1090.45 133.491 1089.31 136.225 1089.31 139.415C1089.31 142.719 1090.45 145.567 1092.72 147.96C1095 150.239 1097.74 151.378 1100.93 151.378H1149.46C1157.44 151.378 1164.96 152.745 1172.02 155.479C1179.09 158.1 1185.24 161.803 1190.48 166.588C1195.72 171.373 1199.88 177.127 1202.95 183.849C1206.03 190.571 1207.57 197.919 1207.57 205.895C1207.57 213.984 1206.03 221.56 1202.95 228.624C1199.88 235.574 1195.72 241.726 1190.48 247.081C1185.24 252.322 1179.09 256.48 1172.02 259.557C1164.96 262.519 1157.44 264 1149.46 264ZM1287.55 31.2363C1287.55 35.5658 1286.69 39.6104 1284.99 43.3701C1283.39 47.1299 1281.17 50.4339 1278.32 53.2822C1275.47 56.0166 1272.11 58.2383 1268.24 59.9473C1264.48 61.5423 1260.43 62.3398 1256.1 62.3398C1251.77 62.3398 1247.67 61.5423 1243.8 59.9473C1240.04 58.2383 1236.74 56.0166 1233.89 53.2822C1231.15 50.4339 1228.93 47.1299 1227.22 43.3701C1225.63 39.6104 1224.83 35.5658 1224.83 31.2363C1224.83 27.0208 1225.63 23.0332 1227.22 19.2734C1228.93 15.3997 1231.15 12.0957 1233.89 9.36133C1236.74 6.51302 1240.04 4.29134 1243.8 2.69629C1247.67 0.987305 1251.77 0.132812 1256.1 0.132812C1260.43 0.132812 1264.48 0.987305 1268.24 2.69629C1272.11 4.29134 1275.47 6.51302 1278.32 9.36133C1281.17 12.0957 1283.39 15.3997 1284.99 19.2734C1286.69 23.0332 1287.55 27.0208 1287.55 31.2363ZM1279.52 264H1232.52V80.9678H1279.52V264Z" fill="#0648B3"/>
</svg>
