<svg width="284" height="24" viewBox="0 0 284 24" fill="none" xmlns="http://www.w3.org/2000/svg">
<path d="M284 11.0877C284 11.0877 276.687 14.1116 269.975 14.414C263.163 14.7164 257.353 14.414 249.038 12.902C237.719 10.8861 215.88 2.72152 204.26 7.1566C192.639 11.5917 192.138 11.7933 186.228 14.6156C179.616 17.8411 166.193 24.2921 149.563 23.9897C131.832 23.6873 99.6755 7.2574 86.4522 8.06378C85.0497 8.16457 79.8406 8.87015 75.9337 10.0797C72.127 11.2893 66.5171 13.91 58.9037 14.8172C55.6981 15.2204 50.5891 15.926 44.6787 15.7244C43.176 15.6236 38.3676 15.3212 32.6575 14.1116C26.9474 12.902 21.6381 10.9869 16.8296 10.3821C10.1169 9.66077 5.01536 10.0913 2.26974 10.4803C0.795046 10.6892 0 11.0877 0 11.0877V0H284V11.0877Z" fill="white"/>
</svg>
